
<svg version="1.0" xmlns="http://www.w3.org/2000/svg"
 width="225.000000pt" height="225.000000pt" viewBox="0 0 225.000000 225.000000"
 preserveAspectRatio="xMidYMid meet">

<g transform="translate(0.000000,225.000000) scale(0.100000,-0.100000)"
fill="#000000" stroke="none">
<path d="M1000 1801 c-193 -21 -380 -85 -533 -183 l-49 -31 50 -25 49 -24 6
-71 c11 -144 68 -331 148 -488 24 -48 43 -100 45 -121 1 -21 8 -45 15 -55 12
-14 12 -16 0 -8 -11 6 -13 4 -8 -9 4 -9 3 -15 -2 -12 -5 3 -11 18 -14 33 -3
16 -13 37 -21 48 l-16 20 7 -20 c6 -18 5 -19 -11 -6 -9 8 -14 21 -11 30 3 8 3
12 -1 8 -4 -4 -14 -1 -22 6 -9 6 -4 -5 9 -25 14 -23 30 -36 38 -33 9 3 11 0 7
-10 -6 -16 21 -52 108 -143 65 -69 149 -134 249 -193 l80 -48 41 28 c50 35
143 131 179 186 66 100 107 289 78 355 -11 23 -11 23 -7 -10 l5 -35 -18 38
c-18 38 -31 40 -31 4 0 -15 -3 -17 -14 -8 -11 9 -14 -1 -18 -57 -7 -100 -42
-170 -109 -219 -113 -83 -96 -82 -185 -15 -211 157 -353 381 -407 642 -31 149
-34 133 36 181 78 54 213 120 297 147 120 38 181 47 325 45 120 -1 156 -6 255
-31 63 -17 147 -44 185 -61 95 -42 49 -6 -61 48 -204 100 -454 145 -674 122z
m384 -835 c-3 -15 -8 -25 -11 -23 -2 3 -1 17 3 31 3 15 8 25 11 23 2 -3 1 -17
-3 -31z m-27 -38 c-3 -8 -6 -5 -6 6 -1 11 2 17 5 13 3 -3 4 -12 1 -19z m-598
-102 c26 -42 26 -43 -1 -56 -22 -11 -23 -11 -3 5 13 10 16 18 9 23 -11 7 -34
45 -34 56 0 13 10 4 29 -28z"/>
<path d="M1536 1112 c-16 -34 -16 -45 -6 -77 8 -23 11 -71 8 -125 -3 -73 -9
-99 -35 -151 l-32 -64 46 50 c84 91 97 118 96 194 -1 61 -24 148 -50 195 -8
14 -12 11 -27 -22z"/>
<path d="M1330 1039 c0 -5 5 -7 10 -4 6 3 10 8 10 11 0 2 -4 4 -10 4 -5 0 -10
-5 -10 -11z"/>
<path d="M606 927 c3 -10 9 -15 12 -12 3 3 0 11 -7 18 -10 9 -11 8 -5 -6z"/>
</g>
</svg>
